<?xml version="1.0" encoding="utf-8"?>
<!-- Svg Vector Icons : http://www.onlinewebfonts.com/icon -->
<!DOCTYPE svg PUBLIC "-//W3C//DTD SVG 1.1//EN" "http://www.w3.org/Graphics/SVG/1.1/DTD/svg11.dtd">
<svg version="1.1" xmlns="http://www.w3.org/2000/svg" xmlns:xlink="http://www.w3.org/1999/xlink" x="0px" y="0px" viewBox="0 0 1000 1000" enable-background="new 0 0 1000 1000" xml:space="preserve">
<metadata> Svg Vector Icons : http://www.onlinewebfonts.com/icon </metadata>
<g><g transform="matrix(1 0 0 -1 0 1952)"><path d="M745.6,1788.6c0,33.8-27.4,61.3-61.3,61.3c-33.8,0-61.3-27.4-61.3-61.3c0-33.9,27.4-61.3,61.3-61.3S745.6,1754.8,745.6,1788.6z M928.6,1134.5l0,719.4c0,89.3-93,88.2-93,88.2l-524.4-0.5c-96.9,0-85.9-90.2-85.9-90.2v-552.9h60.4v550.4c0,33.2,28.1,31.7,28.1,31.7h523c31.3,0,31.6-29.2,31.6-29.2l-0.5-308l-31.8-0.2c0,0-85.5,49.5-118.5,97.4c0,0-27.9,55.6-132.8,55.6l-143.4,0.2c0,0-16.7-0.8-33.9-30.8c-2.4-3.7-85-139-85-139s-20.5-44.4,17.3-44.4c0,0,23-1.9,37.3,22.2l66.8,88.3c0,0,5.8,13.6,29.7,27.3l19.4,0.9c0,0,28.9,0.9,23.4-15.9c0,0-65.3-88-76.7-160.4l-0.2-152.7c0,0-1.8-20.6-23.4-24c-70.6,0-142.9,0.5-142.9,0.5s-48.2-0.5-48.2-47.8c0,0,1.6-44.3,47.5-44.3l214.7,0.8c34.1,0,27.8,86.2,27.8,86.2s15.6,120.2,36.1,89.4c0,0,100.8-188.8,135-249c0,0,12.7-34.2,53-34.2c0,0,36.5,11.4,36.5,38.7l-152.5,296.4v34.2l45.4,105.7c0,0,20.5,25.4,34.2,4.9c0,0,28.2-26.9,102.5-66.3l62-0.6l1.4-317.4c0-35.7-30.1-65.2-30.1-65.2l-45.3-57.2c-29-25.2-51-19.5-51-19.5l-502.9-0.9c-32.8,0,1.9,30,1.9,30l44.3,44v49.6h-66.3c-3.6-4-136-158.2-136-158.2c-33.2-28.1,10.2-25.5,10.2-25.5l692.1,0c15.3,0,45.4,26.6,45.4,26.6l49.4,61.9C937.2,1106.2,928.6,1134.5,928.6,1134.5L928.6,1134.5z"/></g></g>
</svg>